<svg version="1.1" id="Layer_1" xmlns="http://www.w3.org/2000/svg" xmlns:xlink="http://www.w3.org/1999/xlink" x="0px" y="0px"
	 width="100%" viewBox="0 0 512 512" enable-background="new 0 0 512 512" xml:space="preserve">
<path fill="#000000" opacity="1.000000" stroke="none" 
	d="
M344.000000,513.000000 
	C229.361191,513.000000 115.222374,513.000000 1.041779,513.000000 
	C1.041779,342.402832 1.041779,171.805649 1.041779,1.104233 
	C171.555481,1.104233 342.111053,1.104233 512.833313,1.104233 
	C512.833313,171.666534 512.833313,342.333252 512.833313,513.000000 
	C456.805573,513.000000 400.652802,513.000000 344.000000,513.000000 
M124.911774,357.625732 
	C137.621429,354.072479 149.327591,348.595032 158.000076,338.338257 
	C163.109802,332.295044 167.396362,325.555847 172.851013,319.338959 
	C187.719955,322.809814 202.680008,319.811493 217.595306,319.945801 
	C230.583832,320.062775 243.678665,319.005676 256.527069,320.359680 
	C265.278076,321.281891 273.941040,325.439453 276.867126,335.284149 
	C278.780884,341.722961 280.699371,348.451630 280.815491,355.082031 
	C281.267212,380.877594 280.999542,406.685822 280.999512,432.489319 
	C280.999512,434.251740 280.999512,436.014191 280.999512,437.835968 
	C292.055084,437.835968 302.516937,437.835968 313.908661,437.983063 
	C324.477478,437.983063 335.046295,437.983063 346.148224,437.983063 
	C346.148224,411.035187 346.148224,384.530914 346.740326,358.348236 
	C352.460114,364.895721 357.453308,372.315125 364.049286,377.811096 
	C378.262115,389.653900 395.124451,394.032593 413.664612,393.108551 
	C429.927155,392.298004 444.167175,386.634094 456.181671,376.135651 
	C477.141449,357.820740 484.852417,334.301239 479.888184,307.137909 
	C475.039612,280.607635 459.088379,262.680176 434.075012,253.016754 
	C418.352081,246.942490 402.242279,247.816101 386.125153,250.998001 
	C386.780426,246.312012 387.542725,241.638062 388.071594,236.937851 
	C389.911011,220.591217 400.548004,211.343872 416.924377,210.881042 
	C428.336945,210.558517 438.927063,214.081024 449.747498,216.485306 
	C462.505524,219.320145 469.416992,216.397781 473.107941,208.454422 
	C475.973450,202.287476 478.181549,195.784546 480.289520,189.303360 
	C483.387695,179.777725 481.212128,170.802139 474.310242,164.075943 
	C465.486145,155.476532 455.682953,147.859604 446.099609,140.067825 
	C436.830078,132.531219 427.304169,125.309944 418.174774,117.293350 
	C423.249573,110.603226 427.849884,103.468071 433.562958,97.376556 
	C437.490082,93.189293 439.750244,87.963715 436.842651,84.340889 
	C433.036804,79.598839 426.936523,79.329048 422.403503,84.199715 
	C416.361572,90.691704 410.681946,97.520882 405.026794,103.998932 
	C404.107452,100.160271 402.638611,95.835876 402.129517,91.401306 
	C401.601929,86.805649 402.066315,82.101883 401.965759,77.448235 
	C401.931915,75.882530 401.864105,74.135040 401.173462,72.801163 
	C399.293274,69.169899 395.892487,67.288116 392.026184,68.158875 
	C387.652588,69.143875 384.748627,72.226715 385.030640,77.127380 
	C385.545990,86.083290 386.247894,95.028473 385.996368,103.935959 
	C380.669556,104.990204 375.342773,106.044449 369.386871,106.817635 
	C357.074738,94.777214 341.825806,95.256836 326.408966,96.359856 
	C324.921906,104.875732 328.793396,119.577484 337.197266,132.219101 
	C335.885986,132.881775 334.640533,133.863800 333.251709,134.149933 
	C328.177307,135.195389 323.058655,136.675323 317.949829,136.702484 
	C313.730438,136.724899 309.547699,134.542358 305.265625,134.025314 
	C299.035339,133.273056 292.401154,134.241776 286.532684,132.489273 
	C277.197876,129.701614 268.168549,132.685135 259.035767,132.101639 
	C258.705566,132.080551 258.336182,132.672302 257.135193,133.004105 
	C250.739227,134.516449 244.281570,135.809616 237.960480,137.588074 
	C225.838211,140.998672 213.934143,145.135620 200.964813,144.101212 
	C194.386444,143.576523 187.723389,144.113571 180.169388,143.979843 
	C173.072769,143.650253 165.978638,143.196014 158.878265,143.053741 
	C156.123322,142.998535 153.361954,143.824783 150.590256,143.945679 
	C140.389908,144.390610 130.154602,144.349380 119.989052,145.182083 
	C111.142586,145.906738 102.402344,147.861938 93.562439,148.746780 
	C76.087257,150.496017 62.139801,158.867538 51.490688,172.175903 
	C35.514603,192.141464 32.577469,216.302124 32.199532,240.754944 
	C32.050896,250.371948 33.567947,260.093903 35.137447,269.634674 
	C36.545536,278.194275 39.066040,286.570862 41.069233,295.876160 
	C43.903877,308.953156 46.929836,321.992432 49.517319,335.118164 
	C51.921108,347.312134 54.938309,359.527100 55.750149,371.860229 
	C57.022465,391.188782 56.671036,410.624481 56.993534,430.015015 
	C57.036728,432.612183 56.999470,435.210663 56.999470,437.836060 
	C68.063667,437.836060 78.521172,437.836060 89.908554,437.983215 
	C100.483757,437.983215 111.058960,437.983215 121.556793,437.983215 
	C123.658173,411.024506 119.265480,384.331482 124.911774,357.625732 
z"/>
<path fill="#D3DCE5" opacity="1.000000" stroke="none" 
	d="
M88.978683,437.836060 
	C78.521172,437.836060 68.063667,437.836060 56.999470,437.836060 
	C56.999470,435.210663 57.036728,432.612183 56.993534,430.015015 
	C56.671036,410.624481 57.022465,391.188782 55.750149,371.860229 
	C54.938309,359.527100 51.921108,347.312134 49.517319,335.118164 
	C46.929836,321.992432 43.903877,308.953156 41.486221,295.506256 
	C44.005531,294.675964 46.171963,294.406525 48.200211,293.725494 
	C67.388695,287.283112 82.207115,275.364716 90.836777,257.013092 
	C103.433800,230.224564 121.491829,210.029495 150.741196,200.893753 
	C156.774170,199.009399 162.345016,193.712006 166.688721,188.731659 
	C177.706055,176.099594 180.840698,160.502975 181.098618,144.170624 
	C187.723389,144.113571 194.386444,143.576523 200.964813,144.101212 
	C213.934143,145.135620 225.838211,140.998672 237.960480,137.588074 
	C244.281570,135.809616 250.739227,134.516449 257.604004,133.361038 
	C260.262604,141.666412 264.431824,148.456116 270.858398,153.553848 
	C277.104034,158.508041 283.270050,163.940918 290.332489,167.409744 
	C305.863159,175.037842 315.152008,187.352448 321.312866,202.993759 
	C327.099091,217.683807 336.710999,229.804810 350.699646,237.198639 
	C361.814270,243.073380 373.920807,247.071396 385.343262,252.204987 
	C383.642273,253.263626 382.224762,254.111771 380.721497,254.761642 
	C368.725739,259.947601 358.842072,267.808014 351.070526,278.284332 
	C339.435699,293.968475 335.627319,311.728546 337.008118,331.049591 
	C331.780670,336.131104 326.415253,340.699310 322.099182,346.105316 
	C315.079559,354.897552 313.279053,365.696014 313.098297,376.551727 
	C312.758179,396.974823 312.986664,417.407349 312.978760,437.835968 
	C302.516937,437.835968 292.055084,437.835968 280.999512,437.835968 
	C280.999512,436.014191 280.999512,434.251740 280.999512,432.489319 
	C280.999542,406.685822 281.267212,380.877594 280.815491,355.082031 
	C280.699371,348.451630 278.780884,341.722961 276.867126,335.284149 
	C273.941040,325.439453 265.278076,321.281891 256.527069,320.359680 
	C243.678665,319.005676 230.583832,320.062775 217.595306,319.945801 
	C202.680008,319.811493 187.719955,322.809814 172.056458,319.133026 
	C158.322937,316.936829 145.432648,314.464203 132.425308,313.151306 
	C125.482048,312.450439 118.164452,312.920746 111.321693,314.338623 
	C100.222458,316.638580 93.154327,324.172180 91.194016,335.282867 
	C89.706169,343.715820 89.703819,352.410828 89.023834,361.457733 
	C88.997696,387.229523 88.988190,412.532776 88.978683,437.836060 
M164.022461,254.796890 
	C164.108307,267.244080 172.635971,274.744873 184.928314,272.384796 
	C199.748703,269.539429 213.557877,271.627533 227.027817,278.314423 
	C233.686340,281.619934 240.729553,284.425537 247.892990,286.377228 
	C259.904755,289.649872 272.043884,284.850952 279.213135,274.962250 
	C282.935547,269.827850 283.087433,265.809601 279.578186,260.770905 
	C278.348145,259.004730 276.956635,257.321869 275.457336,255.777191 
	C266.022430,246.056946 259.468323,235.066330 259.047821,221.029068 
	C258.652832,207.841812 248.323883,197.652649 235.127075,197.996872 
	C220.962906,198.366333 208.841827,203.384842 200.805771,215.891159 
	C195.085007,224.794266 187.334579,231.381134 177.893127,236.110870 
	C170.481400,239.823837 165.600067,245.617279 164.022461,254.796890 
z"/>
<path fill="#737F9B" opacity="1.000000" stroke="none" 
	d="
M385.586975,251.902649 
	C373.920807,247.071396 361.814270,243.073380 350.699646,237.198639 
	C336.710999,229.804810 327.099091,217.683807 321.312866,202.993759 
	C315.152008,187.352448 305.863159,175.037842 290.332489,167.409744 
	C283.270050,163.940918 277.104034,158.508041 270.858398,153.553848 
	C264.431824,148.456116 260.262604,141.666412 258.028931,133.348206 
	C258.336182,132.672302 258.705566,132.080551 259.035767,132.101639 
	C268.168549,132.685135 277.197876,129.701614 286.532684,132.489273 
	C292.401154,134.241776 299.035339,133.273056 305.265625,134.025314 
	C309.547699,134.542358 313.730438,136.724899 317.949829,136.702484 
	C323.058655,136.675323 328.177307,135.195389 333.251709,134.149933 
	C334.640533,133.863800 335.885986,132.881775 337.872009,132.108948 
	C344.053070,135.347672 349.433929,138.940247 355.149384,141.882996 
	C356.677917,142.669998 360.039429,142.244537 361.172516,141.054794 
	C366.758148,135.189911 371.830231,128.839401 377.187897,122.752106 
	C378.982941,120.712601 378.620758,119.077301 377.122589,117.103569 
	C374.650574,113.846893 372.374573,110.441444 370.015961,107.098694 
	C375.342773,106.044449 380.669556,104.990204 386.785400,104.111359 
	C395.402466,107.633965 403.250092,110.936539 411.046692,114.355453 
	C413.400848,115.387779 415.613434,116.742897 417.890869,117.950157 
	C427.304169,125.309944 436.830078,132.531219 446.099609,140.067825 
	C455.682953,147.859604 465.486145,155.476532 474.310242,164.075943 
	C481.212128,170.802139 483.387695,179.777725 480.289520,189.303360 
	C478.181549,195.784546 475.973450,202.287476 473.107941,208.454422 
	C469.416992,216.397781 462.505524,219.320145 449.747498,216.485306 
	C438.927063,214.081024 428.336945,210.558517 416.924377,210.881042 
	C400.548004,211.343872 389.911011,220.591217 388.071594,236.937851 
	C387.542725,241.638062 386.780426,246.312012 386.001282,251.449615 
	C385.877441,251.901230 385.586975,251.902649 385.586975,251.902649 
M416.600311,146.552277 
	C414.393219,143.563675 411.808777,139.935089 407.878998,141.527039 
	C405.110443,142.648544 402.822906,145.906540 401.268372,148.732056 
	C400.281616,150.525620 400.940430,153.278687 401.023529,155.595657 
	C401.208618,160.754745 404.246490,163.932846 408.911469,163.986618 
	C413.608826,164.040756 416.784424,160.891663 416.970795,155.789200 
	C417.073547,152.977097 416.908112,150.155228 416.600311,146.552277 
z"/>
<path fill="#78B24C" opacity="1.000000" stroke="none" 
	d="
M385.343262,252.205002 
	C385.586975,251.902649 385.877441,251.901230 386.018768,251.868546 
	C402.242279,247.816101 418.352081,246.942490 434.075012,253.016754 
	C459.088379,262.680176 475.039612,280.607635 479.888184,307.137909 
	C484.852417,334.301239 477.141449,357.820740 456.181671,376.135651 
	C444.167175,386.634094 429.927155,392.298004 413.664612,393.108551 
	C395.124451,394.032593 378.262115,389.653900 364.049286,377.811096 
	C357.453308,372.315125 352.460114,364.895721 346.369171,357.820160 
	C343.112457,348.498871 340.226898,339.705658 337.341339,330.912445 
	C335.627319,311.728546 339.435699,293.968475 351.070526,278.284332 
	C358.842072,267.808014 368.725739,259.947601 380.721497,254.761642 
	C382.224762,254.111771 383.642273,253.263626 385.343262,252.205002 
M398.646820,320.924774 
	C397.108582,319.406982 395.668854,317.770416 394.011719,316.395935 
	C390.496307,313.480164 386.282104,313.663635 383.193695,316.703003 
	C380.279572,319.570801 379.961670,324.311768 382.945679,327.502563 
	C387.597443,332.476685 392.397400,337.335236 397.418518,341.932587 
	C400.611603,344.856171 404.590424,345.128906 407.796722,342.007935 
	C418.157288,331.923096 428.495728,321.798492 438.363403,311.241241 
	C440.005585,309.484222 440.237183,305.111206 439.296631,302.641815 
	C438.522400,300.609100 435.083344,298.530365 432.754303,298.446594 
	C430.381622,298.361237 427.477570,300.222961 425.578857,302.039734 
	C417.915466,309.372375 410.550446,317.016876 402.876862,324.746094 
	C401.334778,323.376617 400.244446,322.408295 398.646820,320.924774 
z"/>
<path fill="#737F9B" opacity="1.000000" stroke="none" 
	d="
M180.634003,144.075226 
	C180.840698,160.502975 177.706055,176.099594 166.688721,188.731659 
	C162.345016,193.712006 156.774170,199.009399 150.741196,200.893753 
	C121.491829,210.029495 103.433800,230.224564 90.836777,257.013092 
	C82.207115,275.364716 67.388695,287.283112 48.200211,293.725494 
	C46.171963,294.406525 44.005531,294.675964 41.499504,295.082275 
	C39.066040,286.570862 36.545536,278.194275 35.137447,269.634674 
	C33.567947,260.093903 32.050896,250.371948 32.199532,240.754944 
	C32.577469,216.302124 35.514603,192.141464 51.490688,172.175903 
	C62.139801,158.867538 76.087257,150.496017 93.562439,148.746780 
	C102.402344,147.861938 111.142586,145.906738 119.989052,145.182083 
	C130.154602,144.349380 140.389908,144.390610 150.590256,143.945679 
	C153.361954,143.824783 156.123322,142.998535 158.878265,143.053741 
	C165.978638,143.196014 173.072769,143.650253 180.634003,144.075226 
z"/>
<path fill="#B8C3D5" opacity="1.000000" stroke="none" 
	d="
M337.008118,331.049591 
	C340.226898,339.705658 343.112457,348.498871 346.073120,357.659363 
	C346.148224,384.530914 346.148224,411.035187 346.148224,437.983063 
	C335.046295,437.983063 324.477478,437.983063 313.443695,437.909515 
	C312.986664,417.407349 312.758179,396.974823 313.098297,376.551727 
	C313.279053,365.696014 315.079559,354.897552 322.099182,346.105316 
	C326.415253,340.699310 331.780670,336.131104 337.008118,331.049591 
z"/>
<path fill="#D68177" opacity="1.000000" stroke="none" 
	d="
M89.040466,360.989258 
	C89.703819,352.410828 89.706169,343.715820 91.194016,335.282867 
	C93.154327,324.172180 100.222458,316.638580 111.321693,314.338623 
	C118.164452,312.920746 125.482048,312.450439 132.425308,313.151306 
	C145.432648,314.464203 158.322937,316.936829 171.657532,319.028381 
	C167.396362,325.555847 163.109802,332.295044 158.000076,338.338257 
	C149.327591,348.595032 137.621429,354.072479 124.132286,357.723145 
	C111.915359,358.876770 100.477913,359.933014 89.040466,360.989258 
z"/>
<path fill="#B8C3D5" opacity="1.000000" stroke="none" 
	d="
M89.023834,361.457764 
	C100.477913,359.933014 111.915359,358.876770 123.805099,357.884583 
	C119.265480,384.331482 123.658173,411.024506 121.556793,437.983215 
	C111.058960,437.983215 100.483757,437.983215 89.443619,437.909637 
	C88.988190,412.532776 88.997696,387.229523 89.023834,361.457764 
z"/>
<path fill="#536882" opacity="1.000000" stroke="none" 
	d="
M369.701416,106.958160 
	C372.374573,110.441444 374.650574,113.846893 377.122589,117.103569 
	C378.620758,119.077301 378.982941,120.712601 377.187897,122.752106 
	C371.830231,128.839401 366.758148,135.189911 361.172516,141.054794 
	C360.039429,142.244537 356.677917,142.669998 355.149384,141.882996 
	C349.433929,138.940247 344.053070,135.347672 338.187012,131.944031 
	C328.793396,119.577484 324.921906,104.875732 326.408966,96.359856 
	C341.825806,95.256836 357.074738,94.777214 369.701416,106.958160 
z"/>
<path fill="#D3DCE5" opacity="1.000000" stroke="none" 
	d="
M418.032837,117.621750 
	C415.613434,116.742897 413.400848,115.387779 411.046692,114.355453 
	C403.250092,110.936539 395.402466,107.633965 387.223175,104.132439 
	C386.247894,95.028473 385.545990,86.083290 385.030640,77.127380 
	C384.748627,72.226715 387.652588,69.143875 392.026184,68.158875 
	C395.892487,67.288116 399.293274,69.169899 401.173462,72.801163 
	C401.864105,74.135040 401.931915,75.882530 401.965759,77.448235 
	C402.066315,82.101883 401.601929,86.805649 402.129517,91.401306 
	C402.638611,95.835876 404.107452,100.160271 405.026794,103.998932 
	C410.681946,97.520882 416.361572,90.691704 422.403503,84.199715 
	C426.936523,79.329048 433.036804,79.598839 436.842651,84.340889 
	C439.750244,87.963715 437.490082,93.189293 433.562958,97.376556 
	C427.849884,103.468071 423.249573,110.603226 418.032837,117.621750 
z"/>
<path fill="#74809B" opacity="1.000000" stroke="none" 
	d="
M164.050476,254.374069 
	C165.600067,245.617279 170.481400,239.823837 177.893127,236.110870 
	C187.334579,231.381134 195.085007,224.794266 200.805771,215.891159 
	C208.841827,203.384842 220.962906,198.366333 235.127075,197.996872 
	C248.323883,197.652649 258.652832,207.841812 259.047821,221.029068 
	C259.468323,235.066330 266.022430,246.056946 275.457336,255.777191 
	C276.956635,257.321869 278.348145,259.004730 279.578186,260.770905 
	C283.087433,265.809601 282.935547,269.827850 279.213135,274.962250 
	C272.043884,284.850952 259.904755,289.649872 247.892990,286.377228 
	C240.729553,284.425537 233.686340,281.619934 227.027817,278.314423 
	C213.557877,271.627533 199.748703,269.539429 184.928314,272.384796 
	C172.635971,274.744873 164.108307,267.244080 164.050476,254.374069 
z"/>
<path fill="#546883" opacity="1.000000" stroke="none" 
	d="
M416.731964,146.945007 
	C416.908112,150.155228 417.073547,152.977097 416.970795,155.789200 
	C416.784424,160.891663 413.608826,164.040756 408.911469,163.986618 
	C404.246490,163.932846 401.208618,160.754745 401.023529,155.595657 
	C400.940430,153.278687 400.281616,150.525620 401.268372,148.732056 
	C402.822906,145.906540 405.110443,142.648544 407.878998,141.527039 
	C411.808777,139.935089 414.393219,143.563675 416.731964,146.945007 
z"/>
<path fill="#D2DBE3" opacity="1.000000" stroke="none" 
	d="
M398.900452,321.182373 
	C400.244446,322.408295 401.334778,323.376617 402.876862,324.746094 
	C410.550446,317.016876 417.915466,309.372375 425.578857,302.039734 
	C427.477570,300.222961 430.381622,298.361237 432.754303,298.446594 
	C435.083344,298.530365 438.522400,300.609100 439.296631,302.641815 
	C440.237183,305.111206 440.005585,309.484222 438.363403,311.241241 
	C428.495728,321.798492 418.157288,331.923096 407.796722,342.007935 
	C404.590424,345.128906 400.611603,344.856171 397.418518,341.932587 
	C392.397400,337.335236 387.597443,332.476685 382.945679,327.502563 
	C379.961670,324.311768 380.279572,319.570801 383.193695,316.703003 
	C386.282104,313.663635 390.496307,313.480164 394.011719,316.395935 
	C395.668854,317.770416 397.108582,319.406982 398.900452,321.182373 
z"/>
</svg>